<mxfile host="Electron" agent="Mozilla/5.0 (Macintosh; Intel Mac OS X 10_15_7) AppleWebKit/537.36 (KHTML, like Gecko) draw.io/27.0.5 Chrome/134.0.6998.205 Electron/35.3.0 Safari/537.36" version="27.0.5">
  <diagram name="페이지-1" id="COdh8jkXpbQMtDM8YkLH">
    <mxGraphModel dx="2545" dy="1870" grid="1" gridSize="10" guides="1" tooltips="1" connect="1" arrows="1" fold="1" page="1" pageScale="1" pageWidth="1200" pageHeight="1600" math="0" shadow="0">
      <root>
        <mxCell id="0" />
        <mxCell id="1" parent="0" />
        <mxCell id="lGA4Sl_JolqFVB_ia13P-1" value="VPC" style="sketch=0;outlineConnect=0;gradientColor=none;html=1;whiteSpace=wrap;fontSize=12;fontStyle=0;shape=mxgraph.aws4.group;grIcon=mxgraph.aws4.group_vpc;strokeColor=#879196;fillColor=none;verticalAlign=top;align=left;spacingLeft=30;fontColor=#879196;dashed=0;" vertex="1" parent="1">
          <mxGeometry x="870" y="440" width="760" height="540" as="geometry" />
        </mxCell>
        <mxCell id="lGA4Sl_JolqFVB_ia13P-2" value="" style="shape=mxgraph.networks2.icon;aspect=fixed;fillColor=#EDEDED;strokeColor=#000000;gradientColor=#5B6163;network2IconShadow=1;network2bgFillColor=none;network2Icon=mxgraph.networks2.cctv;network2IconXOffset=-0.0002;network2IconYOffset=-0.0355;network2IconW=1.0004;network2IconH=0.7279;" vertex="1" parent="1">
          <mxGeometry x="490" y="600" width="96.21" height="70" as="geometry" />
        </mxCell>
        <mxCell id="lGA4Sl_JolqFVB_ia13P-24" style="edgeStyle=orthogonalEdgeStyle;rounded=0;orthogonalLoop=1;jettySize=auto;html=1;" edge="1" parent="1" source="lGA4Sl_JolqFVB_ia13P-3" target="lGA4Sl_JolqFVB_ia13P-5">
          <mxGeometry relative="1" as="geometry">
            <mxPoint x="720" y="564.5384615384614" as="targetPoint" />
            <Array as="points">
              <mxPoint x="723" y="500" />
              <mxPoint x="723" y="575" />
            </Array>
          </mxGeometry>
        </mxCell>
        <mxCell id="lGA4Sl_JolqFVB_ia13P-3" value="" style="shape=mxgraph.networks2.icon;aspect=fixed;fillColor=#EDEDED;strokeColor=#000000;gradientColor=#5B6163;network2IconShadow=1;network2bgFillColor=none;network2Icon=mxgraph.networks2.cctv;network2IconXOffset=-0.0002;network2IconYOffset=-0.0355;network2IconW=1.0004;network2IconH=0.7279;" vertex="1" parent="1">
          <mxGeometry x="490" y="460" width="96.21" height="70" as="geometry" />
        </mxCell>
        <mxCell id="lGA4Sl_JolqFVB_ia13P-28" value="" style="edgeStyle=orthogonalEdgeStyle;rounded=0;orthogonalLoop=1;jettySize=auto;html=1;" edge="1" parent="1" source="lGA4Sl_JolqFVB_ia13P-5" target="lGA4Sl_JolqFVB_ia13P-8">
          <mxGeometry relative="1" as="geometry">
            <Array as="points">
              <mxPoint x="1060" y="560" />
              <mxPoint x="1060" y="560" />
            </Array>
          </mxGeometry>
        </mxCell>
        <mxCell id="lGA4Sl_JolqFVB_ia13P-5" value="Amazon Kinesis Video Streams" style="sketch=0;outlineConnect=0;fontColor=#232F3E;gradientColor=none;strokeColor=#ffffff;fillColor=#232F3E;dashed=0;verticalLabelPosition=middle;verticalAlign=bottom;align=center;html=1;whiteSpace=wrap;fontSize=10;fontStyle=1;spacing=3;shape=mxgraph.aws4.productIcon;prIcon=mxgraph.aws4.kinesis_video_streams;" vertex="1" parent="1">
          <mxGeometry x="920" y="510" width="100" height="130" as="geometry" />
        </mxCell>
        <mxCell id="lGA4Sl_JolqFVB_ia13P-29" style="edgeStyle=orthogonalEdgeStyle;rounded=0;orthogonalLoop=1;jettySize=auto;html=1;" edge="1" parent="1" source="lGA4Sl_JolqFVB_ia13P-8">
          <mxGeometry relative="1" as="geometry">
            <mxPoint x="1279.9999999999995" y="560" as="targetPoint" />
            <Array as="points">
              <mxPoint x="1220" y="560" />
              <mxPoint x="1220" y="560" />
            </Array>
          </mxGeometry>
        </mxCell>
        <mxCell id="lGA4Sl_JolqFVB_ia13P-8" value="Amazon Rekognition Video" style="sketch=0;outlineConnect=0;fontColor=#232F3E;gradientColor=none;strokeColor=#ffffff;fillColor=#232F3E;dashed=0;verticalLabelPosition=middle;verticalAlign=bottom;align=center;html=1;whiteSpace=wrap;fontSize=10;fontStyle=1;spacing=3;shape=mxgraph.aws4.productIcon;prIcon=mxgraph.aws4.rekognition_video;" vertex="1" parent="1">
          <mxGeometry x="1100" y="510" width="100" height="130" as="geometry" />
        </mxCell>
        <mxCell id="lGA4Sl_JolqFVB_ia13P-30" style="edgeStyle=orthogonalEdgeStyle;rounded=0;orthogonalLoop=1;jettySize=auto;html=1;" edge="1" parent="1" target="lGA4Sl_JolqFVB_ia13P-12">
          <mxGeometry relative="1" as="geometry">
            <mxPoint x="1379.9999999999995" y="560" as="sourcePoint" />
          </mxGeometry>
        </mxCell>
        <mxCell id="lGA4Sl_JolqFVB_ia13P-12" value="&lt;hr&gt;" style="sketch=0;points=[[0,0,0],[0.25,0,0],[0.5,0,0],[0.75,0,0],[1,0,0],[0,1,0],[0.25,1,0],[0.5,1,0],[0.75,1,0],[1,1,0],[0,0.25,0],[0,0.5,0],[0,0.75,0],[1,0.25,0],[1,0.5,0],[1,0.75,0]];outlineConnect=0;fontColor=#232F3E;fillColor=#8C4FFF;strokeColor=#ffffff;dashed=0;verticalLabelPosition=bottom;verticalAlign=top;align=center;html=1;fontSize=12;fontStyle=0;aspect=fixed;shape=mxgraph.aws4.resourceIcon;resIcon=mxgraph.aws4.managed_service_for_apache_flink;" vertex="1" parent="1">
          <mxGeometry x="1462" y="508.5" width="103" height="103" as="geometry" />
        </mxCell>
        <mxCell id="lGA4Sl_JolqFVB_ia13P-45" style="edgeStyle=orthogonalEdgeStyle;rounded=0;orthogonalLoop=1;jettySize=auto;html=1;" edge="1" parent="1" source="lGA4Sl_JolqFVB_ia13P-13" target="lGA4Sl_JolqFVB_ia13P-18">
          <mxGeometry relative="1" as="geometry" />
        </mxCell>
        <mxCell id="lGA4Sl_JolqFVB_ia13P-51" style="edgeStyle=orthogonalEdgeStyle;rounded=0;orthogonalLoop=1;jettySize=auto;html=1;exitX=0;exitY=0.5;exitDx=0;exitDy=0;exitPerimeter=0;" edge="1" parent="1" source="lGA4Sl_JolqFVB_ia13P-13" target="lGA4Sl_JolqFVB_ia13P-50">
          <mxGeometry relative="1" as="geometry" />
        </mxCell>
        <mxCell id="lGA4Sl_JolqFVB_ia13P-13" value="" style="sketch=0;points=[[0,0,0],[0.25,0,0],[0.5,0,0],[0.75,0,0],[1,0,0],[0,1,0],[0.25,1,0],[0.5,1,0],[0.75,1,0],[1,1,0],[0,0.25,0],[0,0.5,0],[0,0.75,0],[1,0.25,0],[1,0.5,0],[1,0.75,0]];outlineConnect=0;fontColor=#232F3E;fillColor=#E7157B;strokeColor=#ffffff;dashed=0;verticalLabelPosition=bottom;verticalAlign=top;align=center;html=1;fontSize=12;fontStyle=0;aspect=fixed;shape=mxgraph.aws4.resourceIcon;resIcon=mxgraph.aws4.eventbridge;" vertex="1" parent="1">
          <mxGeometry x="1463.5" y="748.63" width="100" height="100" as="geometry" />
        </mxCell>
        <mxCell id="lGA4Sl_JolqFVB_ia13P-39" style="edgeStyle=orthogonalEdgeStyle;rounded=0;orthogonalLoop=1;jettySize=auto;html=1;" edge="1" parent="1" source="lGA4Sl_JolqFVB_ia13P-18" target="lGA4Sl_JolqFVB_ia13P-19">
          <mxGeometry relative="1" as="geometry" />
        </mxCell>
        <mxCell id="lGA4Sl_JolqFVB_ia13P-18" value="Amazon DynamoDB" style="sketch=0;outlineConnect=0;fontColor=#232F3E;gradientColor=none;strokeColor=#ffffff;fillColor=#232F3E;dashed=0;verticalLabelPosition=middle;verticalAlign=bottom;align=center;html=1;whiteSpace=wrap;fontSize=10;fontStyle=1;spacing=3;shape=mxgraph.aws4.productIcon;prIcon=mxgraph.aws4.dynamodb;" vertex="1" parent="1">
          <mxGeometry x="1280" y="669.9999999999999" width="90" height="118.75" as="geometry" />
        </mxCell>
        <mxCell id="lGA4Sl_JolqFVB_ia13P-40" style="edgeStyle=orthogonalEdgeStyle;rounded=0;orthogonalLoop=1;jettySize=auto;html=1;" edge="1" parent="1" source="lGA4Sl_JolqFVB_ia13P-19" target="lGA4Sl_JolqFVB_ia13P-20">
          <mxGeometry relative="1" as="geometry" />
        </mxCell>
        <mxCell id="lGA4Sl_JolqFVB_ia13P-19" value="" style="sketch=0;outlineConnect=0;fontColor=#232F3E;gradientColor=none;fillColor=#C925D1;strokeColor=none;dashed=0;verticalLabelPosition=bottom;verticalAlign=top;align=center;html=1;fontSize=12;fontStyle=0;aspect=fixed;pointerEvents=1;shape=mxgraph.aws4.dynamodb_stream;" vertex="1" parent="1">
          <mxGeometry x="1110" y="684.37" width="90" height="90" as="geometry" />
        </mxCell>
        <mxCell id="lGA4Sl_JolqFVB_ia13P-20" value="AWS Fargate" style="sketch=0;outlineConnect=0;fontColor=#232F3E;gradientColor=none;strokeColor=#ffffff;fillColor=#232F3E;dashed=0;verticalLabelPosition=middle;verticalAlign=bottom;align=center;html=1;whiteSpace=wrap;fontSize=10;fontStyle=1;spacing=3;shape=mxgraph.aws4.productIcon;prIcon=mxgraph.aws4.fargate;" vertex="1" parent="1">
          <mxGeometry x="920" y="671" width="90" height="116.38" as="geometry" />
        </mxCell>
        <mxCell id="lGA4Sl_JolqFVB_ia13P-21" value="" style="sketch=0;pointerEvents=1;shadow=0;dashed=0;html=1;strokeColor=none;fillColor=#005F4B;labelPosition=center;verticalLabelPosition=bottom;verticalAlign=top;align=center;outlineConnect=0;shape=mxgraph.veeam2.alarm;" vertex="1" parent="1">
          <mxGeometry x="530" y="822.51" width="90" height="84.99" as="geometry" />
        </mxCell>
        <mxCell id="lGA4Sl_JolqFVB_ia13P-22" value="" style="verticalLabelPosition=bottom;verticalAlign=top;html=1;shadow=0;dashed=0;strokeWidth=1;shape=mxgraph.android.phone2;strokeColor=#c0c0c0;direction=south;" vertex="1" parent="1">
          <mxGeometry x="360" y="730.01" width="430" height="269.99" as="geometry" />
        </mxCell>
        <mxCell id="lGA4Sl_JolqFVB_ia13P-25" style="edgeStyle=orthogonalEdgeStyle;rounded=0;orthogonalLoop=1;jettySize=auto;html=1;" edge="1" parent="1" target="lGA4Sl_JolqFVB_ia13P-5">
          <mxGeometry relative="1" as="geometry">
            <mxPoint x="579.21" y="635" as="sourcePoint" />
            <mxPoint x="913" y="575" as="targetPoint" />
            <Array as="points">
              <mxPoint x="723" y="635" />
              <mxPoint x="723" y="575" />
            </Array>
          </mxGeometry>
        </mxCell>
        <mxCell id="lGA4Sl_JolqFVB_ia13P-37" style="edgeStyle=orthogonalEdgeStyle;rounded=0;orthogonalLoop=1;jettySize=auto;html=1;entryX=0.5;entryY=0;entryDx=0;entryDy=0;entryPerimeter=0;" edge="1" parent="1" source="lGA4Sl_JolqFVB_ia13P-12" target="lGA4Sl_JolqFVB_ia13P-13">
          <mxGeometry relative="1" as="geometry" />
        </mxCell>
        <mxCell id="lGA4Sl_JolqFVB_ia13P-41" style="edgeStyle=orthogonalEdgeStyle;rounded=0;orthogonalLoop=1;jettySize=auto;html=1;entryX=0.46;entryY=0.018;entryDx=0;entryDy=0;entryPerimeter=0;" edge="1" parent="1" source="lGA4Sl_JolqFVB_ia13P-20" target="lGA4Sl_JolqFVB_ia13P-22">
          <mxGeometry relative="1" as="geometry" />
        </mxCell>
        <mxCell id="lGA4Sl_JolqFVB_ia13P-42" value="Amazon Kinesis Data Streams" style="sketch=0;outlineConnect=0;fontColor=#232F3E;gradientColor=none;strokeColor=#ffffff;fillColor=#232F3E;dashed=0;verticalLabelPosition=middle;verticalAlign=bottom;align=center;html=1;whiteSpace=wrap;fontSize=10;fontStyle=1;spacing=3;shape=mxgraph.aws4.productIcon;prIcon=mxgraph.aws4.kinesis_data_streams;" vertex="1" parent="1">
          <mxGeometry x="1280" y="510" width="100" height="130" as="geometry" />
        </mxCell>
        <mxCell id="lGA4Sl_JolqFVB_ia13P-43" value="&lt;strong style=&quot;caret-color: rgb(0, 0, 0); text-align: start;&quot; data-end=&quot;458&quot; data-start=&quot;401&quot;&gt;Amazon Managed Service for Apache Flink&lt;/strong&gt;" style="text;html=1;align=center;verticalAlign=middle;whiteSpace=wrap;rounded=0;fontSize=10;fontStyle=0" vertex="1" parent="1">
          <mxGeometry x="1444.5" y="616.5" width="135.5" height="30" as="geometry" />
        </mxCell>
        <mxCell id="lGA4Sl_JolqFVB_ia13P-44" value="&lt;div style=&quot;text-align: start;&quot;&gt;&lt;span style=&quot;background-color: transparent; color: light-dark(rgb(0, 0, 0), rgb(255, 255, 255));&quot;&gt;&lt;b&gt;EventBridge&lt;/b&gt;&lt;/span&gt;&lt;/div&gt;" style="text;html=1;align=center;verticalAlign=middle;whiteSpace=wrap;rounded=0;fontSize=10;fontStyle=0" vertex="1" parent="1">
          <mxGeometry x="1445.75" y="855.01" width="135.5" height="30" as="geometry" />
        </mxCell>
        <mxCell id="lGA4Sl_JolqFVB_ia13P-46" value="&lt;strong style=&quot;caret-color: rgb(0, 0, 0); text-align: start;&quot; data-end=&quot;458&quot; data-start=&quot;401&quot;&gt;SSE&lt;/strong&gt;" style="text;html=1;align=center;verticalAlign=middle;whiteSpace=wrap;rounded=0;fontSize=10;fontStyle=0" vertex="1" parent="1">
          <mxGeometry x="810" y="745.01" width="60" height="30" as="geometry" />
        </mxCell>
        <mxCell id="lGA4Sl_JolqFVB_ia13P-50" value="Amazon SNS" style="sketch=0;outlineConnect=0;fontColor=#232F3E;gradientColor=none;strokeColor=#ffffff;fillColor=#232F3E;dashed=0;verticalLabelPosition=middle;verticalAlign=bottom;align=center;html=1;whiteSpace=wrap;fontSize=10;fontStyle=1;spacing=3;shape=mxgraph.aws4.productIcon;prIcon=mxgraph.aws4.sns;" vertex="1" parent="1">
          <mxGeometry x="1280" y="840" width="90" height="110" as="geometry" />
        </mxCell>
      </root>
    </mxGraphModel>
  </diagram>
</mxfile>
